<svg xmlns="http://www.w3.org/2000/svg" viewBox="0 0 512 512" width="512" height="512">
  <defs>
    <linearGradient id="bg" x1="0%" y1="0%" x2="100%" y2="100%">
      <stop offset="0%" style="stop-color:#6d28d9"/>
      <stop offset="100%" style="stop-color:#ec4899"/>
    </linearGradient>
  </defs>
  <rect width="512" height="512" rx="100" fill="url(#bg)"/>
  <!-- 3x3 bingo grid -->
  <rect x="72" y="72" width="108" height="108" rx="18" fill="rgba(255,255,255,0.25)"/>
  <rect x="202" y="72" width="108" height="108" rx="18" fill="rgba(255,255,255,0.25)"/>
  <rect x="332" y="72" width="108" height="108" rx="18" fill="rgba(255,255,255,0.25)"/>
  <rect x="72" y="202" width="108" height="108" rx="18" fill="rgba(255,255,255,0.25)"/>
  <!-- centre free space -->
  <rect x="202" y="202" width="108" height="108" rx="18" fill="rgba(255,255,255,0.9)"/>
  <text x="256" y="272" text-anchor="middle" font-size="60" fill="#7c3aed" font-family="sans-serif" font-weight="900">★</text>
  <rect x="332" y="202" width="108" height="108" rx="18" fill="rgba(255,255,255,0.25)"/>
  <!-- bottom row -->
  <rect x="72" y="332" width="108" height="108" rx="18" fill="rgba(255,255,255,0.85)"/>
  <text x="126" y="402" text-anchor="middle" font-size="60" fill="#7c3aed" font-family="sans-serif" font-weight="900">✓</text>
  <rect x="202" y="332" width="108" height="108" rx="18" fill="rgba(255,255,255,0.25)"/>
  <rect x="332" y="332" width="108" height="108" rx="18" fill="rgba(255,255,255,0.85)"/>
  <text x="386" y="402" text-anchor="middle" font-size="60" fill="#7c3aed" font-family="sans-serif" font-weight="900">✓</text>
</svg>
