<svg xmlns="http://www.w3.org/2000/svg" viewBox="0 0 512 512" width="512" height="512">
  <rect width="512" height="512" rx="112" fill="#1A1A1A"/>
  <radialGradient id="glow" cx="50%" cy="50%" r="60%">
    <stop offset="0%" stop-color="#2a2218"/>
    <stop offset="100%" stop-color="#1A1A1A"/>
  </radialGradient>
  <rect width="512" height="512" rx="112" fill="url(#glow)"/>

  <!-- 3×3 bingo grid -->
  <rect x="64" y="64" width="116" height="116" rx="20" fill="rgba(255,255,255,0.12)"/>
  <rect x="198" y="64" width="116" height="116" rx="20" fill="rgba(255,255,255,0.12)"/>
  <rect x="332" y="64" width="116" height="116" rx="20" fill="#B45309"/>
  <text x="390" y="140" text-anchor="middle" font-size="58" fill="#fff" font-family="sans-serif" font-weight="900">✓</text>

  <rect x="64" y="198" width="116" height="116" rx="20" fill="#B45309"/>
  <text x="122" y="274" text-anchor="middle" font-size="58" fill="#fff" font-family="sans-serif" font-weight="900">✓</text>
  <rect x="198" y="198" width="116" height="116" rx="20" fill="rgba(255,255,255,0.92)"/>
  <text x="256" y="274" text-anchor="middle" font-size="52" fill="#C2410C" font-family="sans-serif" font-weight="900">★</text>
  <rect x="332" y="198" width="116" height="116" rx="20" fill="rgba(255,255,255,0.12)"/>

  <rect x="64" y="332" width="116" height="116" rx="20" fill="rgba(255,255,255,0.12)"/>
  <rect x="198" y="332" width="116" height="116" rx="20" fill="#B45309"/>
  <text x="256" y="408" text-anchor="middle" font-size="58" fill="#fff" font-family="sans-serif" font-weight="900">✓</text>
  <rect x="332" y="332" width="116" height="116" rx="20" fill="#B45309"/>
  <text x="390" y="408" text-anchor="middle" font-size="58" fill="#fff" font-family="sans-serif" font-weight="900">✓</text>
</svg>
